<?xml version="1.0" encoding="utf-8"?>
<!-- Generator: Adobe Illustrator 18.1.1, SVG Export Plug-In . SVG Version: 6.00 Build 0)  -->
<svg version="1.1" id="Laag_1" xmlns="http://www.w3.org/2000/svg" xmlns:xlink="http://www.w3.org/1999/xlink" x="0px" y="0px"
	 viewBox="0 0 75 96" enable-background="new 0 0 75 96" xml:space="preserve">
<path fill="#FFFFFF" d="M60.8,4.8v24.6c-6.4-5-14.5-8.1-23.2-8.1C16.8,21.3,0,38,0,58.6S16.8,96,37.5,96C58.2,96,75,79.3,75,58.6V0
	C70.1,1.2,65.3,2.8,60.8,4.8z M52.2,76.6c-6.2,5.4-13.3,9.8-21,13.1c1.1-2.6,2.1-5.4,3-8.1c-11.2-1.6-19.9-11.3-19.9-22.9
	c0-12.8,10.4-23.2,23.2-23.2c12.8,0,23.2,10.4,23.2,23.2C60.8,65.9,57.4,72.4,52.2,76.6z"/>
<path fill="#1860AA" d="M14.5,62.3L9.8,60L2.3,71.4c1.7,4.7,4.3,8.9,7.6,12.5l13.4-7C18.7,73.4,15.5,68.2,14.5,62.3z"/>
<path fill="#2BAEE5" d="M0.1,55.5c-0.1,1-0.1,2.1-0.1,3.1c0,4.5,0.8,8.8,2.3,12.8L9.8,60L0.1,55.5z"/>
<path fill="#71CAF3" d="M15.3,51.6c1.3-4.1,3.7-7.6,6.8-10.4l13.1-19.9C16.7,22.4,1.7,37.1,0.1,55.5L9.8,60L15.3,51.6z"/>
<path fill="#EC6EA5" d="M75,0c-4.9,1.2-9.7,2.8-14.2,4.8v7.4L75,27.3V0z"/>
<path fill="#2BAEE5" d="M15.3,51.6L9.8,60l4.7,2.2c-0.2-1.2-0.3-2.4-0.3-3.6C14.2,56.2,14.6,53.8,15.3,51.6z"/>
<path fill="#E5007E" d="M37.5,21.3c-0.7,0-1.5,0-2.2,0.1L22.2,41.2c4.1-3.6,9.4-5.7,15.3-5.7c12.4,0,22.6,9.7,23.2,21.9L75,50V27.3
	L60.7,12.1v17.2C54.4,24.3,46.3,21.3,37.5,21.3z"/>
<path fill="#8B358A" d="M60.7,58.6c0,7.2-3.3,13.7-8.6,18c-0.8,0.7-1.7,1.4-2.6,2.1l14.1,6.6c7-6.8,11.3-16.2,11.3-26.7V50
	l-14.3,7.4C60.7,57.8,60.7,58.2,60.7,58.6z"/>
<path fill="#28348A" d="M31.2,89.7c1.1-2.6,2.1-5.4,3-8.1c-4.1-0.6-7.8-2.2-10.9-4.6l-13.4,7C16.7,91.3,26.6,96,37.5,96
	c10.2,0,19.5-4.1,26.2-10.7l-14.1-6.6C44,83.2,37.8,86.9,31.2,89.7z"/>
</svg>
